<?xml version="1.0"?>
<!-- This Source Code Form is subject to the terms of the Mozilla Public
   - License, v. 2.0. If a copy of the MPL was not distributed with this
   - file, You can obtain one at http://mozilla.org/MPL/2.0/. -->
<svg xmlns="http://www.w3.org/2000/svg" viewBox="0 0 16 16">
  <style>
    path:not(:target),
    polygon:not(:target) {
      display: none;
    }
  </style>
  <path id="back" fill-rule="evenodd" d="m 11,4 0,2 4,0 0,4 -4,0 0,2 5,0 0,-8 -5,0 z M 8,0 0,8 8,16 8,12 10,12 6,8 10,4 8,4 8,0 Z"/>
  <path id="forward" fill-rule="evenodd" d="m 5,4 0,2 -4,0 0,4 4,0 0,2 -5,0 0,-8 5,0 z m 3,-4 8,8 -8,8 0,-4 -2,0 4,-4 -4,-4 2,0 0,-4 z"/>
  <path id="reload" fill-rule="evenodd" d="M 10.5,0 8,2.5 13.5,8 16,5.5 10.5,0 Z M 5,0.5 5,11 15.5,11 13.5,9 7,9 7,2.5 5,0.5 Z M 3.5,7 0,10.5 5.5,16 9,12.5 3.5,12.5 3.5,7 Z"/>
  <path id="stop" points="M 2 2 L 2 14 L 14 14 L 14 2 L 2 2 z M 4 4 L 12 4 L 12 12 L 4 12 L 4 4 z M 5 5 L 5 11 L 11 11 L 11 5 L 5 5 z"/>
  <path id="bookmark" d="M8.008,3.632l0.986,2.012l0.452,0.922l1.014,0.169l2.326,0.389l-1.719,1.799l-0.676,0.708l0.145,0.967 L10.896,13l-1.959-1.039l-0.937-0.497l-0.937,0.497l-1.957,1.038L5.468,10.6l0.146-0.968L4.937,8.924L3.219,7.126l2.351-0.39 l1.023-0.17l0.45-0.934L8.008,3.632 M8,0C7.72,0,7.44,0.217,7.228,0.65L5.242,4.766L0.907,5.485c-0.958,0.159-1.195,0.861-0.53,1.56 l3.113,3.258l-0.69,4.583c-0.105,0.689,0.172,1.092,0.658,1.092c0.185,0,0.399-0.058,0.635-0.181l3.906-2.072l3.906,2.072 c0.236,0.123,0.45,0.181,0.635,0.181c0.486,0,0.762-0.403,0.659-1.092l-0.687-4.583l3.109-3.255c0.666-0.702,0.428-1.404-0.53-1.564 l-4.303-0.719L8.772,0.65C8.56,0.217,8.28,0,8,0L8,0z"/>
  <path id="bookmarked" d="M8,0C7.719,0,7.438,0.217,7.225,0.651L5.233,4.773l-4.35,0.72c-0.961,0.159-1.199,0.862-0.531,1.562 l3.124,3.262l-0.692,4.589C2.679,15.596,2.957,16,3.444,16c0.185,0,0.401-0.058,0.637-0.181L8,13.744l3.919,2.075 C12.156,15.942,12.372,16,12.557,16c0.487,0,0.764-0.404,0.661-1.094l-0.69-4.589l3.12-3.259c0.668-0.703,0.43-1.406-0.532-1.566 l-4.317-0.72L8.775,0.651C8.562,0.217,8.281,0,8,0L8,0z"/>
</svg>
